<svg width="291" height="291" viewBox="0 0 291 291" fill="none" xmlns="http://www.w3.org/2000/svg">
<circle cx="145.5" cy="145.5" r="145.5" fill="white"/>
<path d="M91.3187 101.13C67.3187 119.63 56.6187 129.83 52.0187 138.53C47.8187 146.43 47.1187 151.33 49.4187 155.93C52.0187 160.93 56.6187 162.93 65.8187 162.93C80.2187 162.93 97.6187 158.43 122.319 148.33C138.619 141.73 149.219 138.73 155.419 139.13C159.419 139.33 160.319 139.83 160.519 141.53C161.119 145.73 149.719 152.83 120.219 166.43C94.5187 178.33 83.7187 187.03 83.7187 195.83C83.7187 207.03 106.019 209.13 149.519 201.93C170.319 198.43 173.719 198.63 173.719 203.03C173.719 209.63 154.019 219.33 131.519 223.83C118.719 226.33 115.719 227.53 115.719 230.23C115.719 232.03 116.219 232.13 122.519 231.63C126.219 231.33 131.319 230.43 133.919 229.63C137.719 228.33 138.819 228.33 140.319 229.33C141.919 230.53 141.819 230.83 138.919 233.43C137.219 234.93 136.019 236.63 136.319 237.03C137.119 238.43 144.519 238.03 151.319 236.33C159.519 234.33 162.119 234.73 162.619 237.93C163.319 243.03 167.119 243.13 177.419 238.43C201.919 227.13 218.619 205.23 213.719 190.53C212.319 186.03 205.219 179.73 199.519 177.93C196.419 176.93 191.119 176.53 180.919 176.73C165.219 177.03 163.719 176.63 163.719 171.83C163.719 167.73 168.419 164.63 193.219 152.53C215.819 141.43 224.919 135.43 228.519 129.13C231.119 124.53 231.319 121.93 229.319 118.13C225.519 110.83 218.919 107.93 205.119 107.13C193.719 106.63 183.319 108.03 163.219 113.13C155.819 115.03 148.319 116.23 143.719 116.33C136.819 116.43 136.219 116.23 135.919 114.33C135.519 111.73 140.219 107.53 156.819 95.1302C163.319 90.3302 168.619 86.1302 168.719 85.6302C168.719 85.2302 156.019 84.9302 140.519 84.9302L112.219 85.0302L91.3187 101.13Z" fill="black"/>
<path d="M196.719 36.5303C194.819 37.3303 188.319 41.8303 182.219 46.4303L171.219 54.7303L163.719 55.1303C154.719 55.5303 147.819 58.4303 137.319 66.1303C127.519 73.3303 121.719 78.2303 121.719 79.2303C121.719 79.6303 134.619 79.9303 150.319 79.7303L178.919 79.4303L183.319 74.6303C186.919 70.6303 187.719 69.0303 187.719 65.9303C187.719 63.7303 187.019 61.6303 186.219 60.9303C185.319 60.2303 184.719 59.0303 184.919 58.3303C185.119 57.6303 190.119 53.3303 196.219 48.7303C202.219 44.1303 207.319 39.6303 207.519 38.5303C208.219 34.8303 202.919 33.8303 196.719 36.5303Z" fill="black"/>
</svg>
