<?xml version="1.0" standalone="no"?>
<!DOCTYPE svg PUBLIC "-//W3C//DTD SVG 20010904//EN"
 "http://www.w3.org/TR/2001/REC-SVG-20010904/DTD/svg10.dtd">
<svg version="1.0" xmlns="http://www.w3.org/2000/svg"
 width="813.000000pt" height="596.000000pt" viewBox="0 0 813.000000 596.000000"
 preserveAspectRatio="xMidYMid meet">

<g transform="translate(0.000000,596.000000) scale(0.100000,-0.100000)"
fill="#000000" stroke="none">
<path d="M4660 4774 c-19 -8 -84 -53 -145 -99 l-110 -83 -75 -4 c-90 -4 -159
-33 -264 -110 -98 -72 -156 -121 -156 -131 0 -4 129 -7 286 -5 l286 3 44 48
c36 40 44 56 44 87 0 22 -7 43 -15 50 -9 7 -15 19 -13 26 2 7 52 50 113 96 60
46 111 91 113 102 7 37 -46 47 -108 20z"/>
<path d="M3606 4128 c-240 -185 -347 -287 -393 -374 -42 -79 -49 -128 -26
-174 26 -50 72 -70 164 -70 144 0 318 45 565 146 163 66 269 96 331 92 40 -2
49 -7 51 -24 6 -42 -108 -113 -403 -249 -257 -119 -365 -206 -365 -294 0 -112
223 -133 658 -61 208 35 242 33 242 -11 0 -66 -197 -163 -422 -208 -128 -25
-158 -37 -158 -64 0 -18 5 -19 68 -14 37 3 88 12 114 20 38 13 49 13 64 3 16
-12 15 -15 -14 -41 -17 -15 -29 -32 -26 -36 8 -14 82 -10 150 7 82 20 108 16
113 -16 7 -51 45 -52 148 -5 245 113 412 332 363 479 -14 45 -85 108 -142 126
-31 10 -84 14 -186 12 -157 -3 -172 1 -172 49 0 41 47 72 295 193 226 111 317
171 353 234 26 46 28 72 8 110 -38 73 -104 102 -242 110 -114 5 -218 -9 -419
-60 -74 -19 -149 -31 -195 -32 -69 -1 -75 1 -78 20 -4 26 43 68 209 192 65 48
118 90 119 95 0 4 -127 7 -282 7 l-283 -1 -209 -161z"/>
<path d="M3850 2743 c-72 -14 -54 -53 24 -53 54 0 96 20 96 46 0 14 -60 18
-120 7z"/>
<path d="M1128 2302 c-34 -3 -38 -6 -38 -32 0 -27 3 -29 48 -32 l47 -3 3 -147
3 -148 44 0 44 0 3 148 3 147 43 3 c42 3 43 4 40 35 l-3 32 -100 0 c-55 1
-117 -1 -137 -3z"/>
<path d="M1538 2303 c-16 -4 -18 -21 -18 -184 l0 -180 43 3 42 3 3 73 3 73 67
-3 67 -3 3 -72 3 -73 44 0 45 0 0 174 c0 190 -3 200 -57 194 -28 -3 -28 -4
-31 -75 l-3 -73 -69 0 -70 0 0 69 c0 80 -10 90 -72 74z"/>
<path d="M2007 2304 c-4 -4 -7 -88 -7 -186 l0 -178 111 0 110 0 -3 33 c-3 32
-3 32 -65 35 l-63 3 0 39 0 39 57 3 c46 2 57 6 59 22 5 37 -6 46 -62 46 l-54
0 0 34 0 34 66 7 65 7 -3 32 -3 31 -101 3 c-55 1 -103 0 -107 -4z"/>
<path d="M2434 2296 c-41 -18 -64 -52 -64 -96 1 -50 25 -75 105 -107 74 -30
93 -55 59 -80 -26 -19 -40 -16 -67 13 -18 20 -32 25 -58 22 -44 -4 -48 -27
-12 -68 78 -87 243 -44 243 65 0 52 -24 77 -105 108 -66 26 -86 47 -66 71 18
22 44 20 66 -4 18 -20 88 -29 99 -12 9 15 -19 56 -53 79 -39 26 -99 30 -147 9z"/>
<path d="M2807 2304 c-4 -4 -7 -88 -7 -186 l0 -178 40 0 40 0 0 69 c0 39 4 72
8 75 5 3 33 -28 63 -69 l54 -74 54 0 c41 -1 51 2 44 12 -6 6 -38 48 -72 91
-38 49 -58 83 -53 90 5 6 34 44 66 84 31 40 54 77 51 82 -7 12 -65 13 -80 2
-6 -4 -37 -40 -68 -80 -35 -45 -59 -69 -62 -60 -2 7 -6 42 -7 78 -3 64 -3 65
-33 68 -17 2 -34 0 -38 -4z"/>
<path d="M3267 2304 c-4 -4 -7 -88 -7 -186 l0 -178 111 0 110 0 -3 33 c-3 32
-3 32 -65 35 l-63 3 0 39 0 39 58 3 c56 3 57 3 57 33 0 30 -1 30 -57 33 l-58
3 0 33 c0 31 3 34 38 40 20 3 50 6 65 6 26 0 28 3 25 33 l-3 32 -101 3 c-55 1
-103 0 -107 -4z"/>
<path d="M3627 2304 c-4 -4 -7 -19 -7 -34 0 -24 5 -28 48 -36 30 -6 47 -14 48
-24 1 -8 2 -72 2 -142 l2 -128 40 0 40 0 0 145 c0 152 1 154 44 146 6 -1 20 0
33 4 20 5 24 11 21 38 l-3 32 -131 3 c-71 1 -133 -1 -137 -4z"/>
<path d="M4132 2289 c-51 -26 -78 -58 -93 -113 -23 -86 11 -175 82 -215 44
-25 136 -28 178 -6 34 17 81 70 81 91 0 23 -83 19 -105 -6 -13 -14 -31 -20
-62 -20 -69 0 -102 48 -90 127 8 46 33 72 78 79 28 5 41 1 66 -20 34 -28 113
-38 113 -13 0 28 -41 76 -82 96 -56 27 -111 27 -166 0z"/>
<path d="M4547 2303 c-4 -3 -7 -87 -7 -185 l0 -178 45 0 45 0 0 75 0 76 68 -3
67 -3 3 -72 3 -73 44 0 45 0 0 174 c0 190 -3 200 -57 194 -28 -3 -28 -4 -31
-75 l-3 -73 -69 0 -70 0 0 69 c0 54 -4 70 -16 75 -21 8 -59 8 -67 -1z"/>
<path d="M5115 2291 c-80 -36 -112 -100 -103 -202 5 -53 26 -89 72 -123 41
-31 159 -35 204 -7 29 19 72 74 72 94 0 16 -82 6 -109 -14 -20 -15 -39 -19
-71 -17 -57 4 -85 40 -84 105 1 39 6 51 33 75 39 35 80 36 119 3 21 -18 42
-25 71 -25 23 0 41 4 41 9 0 23 -50 79 -90 99 -53 27 -101 28 -155 3z"/>
<path d="M5527 2303 c-4 -3 -7 -87 -7 -185 l0 -178 40 0 40 0 0 64 c0 36 4 67
9 71 11 6 39 -31 70 -92 21 -42 23 -43 70 -43 l49 0 -41 72 c-29 50 -38 73
-29 76 34 11 63 49 68 87 8 55 -26 105 -81 121 -43 13 -177 18 -188 7z m171
-85 c7 -7 12 -21 12 -33 0 -32 -20 -45 -67 -45 l-43 0 0 45 0 45 43 0 c24 0
48 -5 55 -12z"/>
<path d="M6073 2302 c-6 -4 -40 -87 -76 -185 l-64 -177 44 0 c40 0 45 3 54 30
11 30 12 30 84 30 l73 0 7 -30 c6 -28 10 -30 51 -30 24 0 44 4 44 8 0 11 -116
338 -125 352 -7 12 -75 13 -92 2z m71 -176 c9 -27 16 -51 16 -53 0 -2 -21 -3
-46 -3 -45 0 -46 1 -39 27 13 52 35 97 44 87 5 -5 16 -31 25 -58z"/>
<path d="M6447 2303 c-4 -3 -7 -87 -7 -185 l0 -178 45 0 44 0 3 73 3 72 53 3
53 3 -3 32 c-3 31 -5 32 -55 35 l-53 3 0 35 c0 25 4 34 18 35 9 1 31 2 47 4
17 1 42 3 58 4 23 1 27 5 27 30 0 17 -6 31 -16 35 -21 8 -209 8 -217 -1z"/>
<path d="M6813 2304 c-14 -6 -18 -63 -5 -65 6 -1 27 -3 80 -8 9 -1 12 -37 12
-146 l0 -145 45 0 44 0 3 148 3 147 43 3 c42 3 43 4 40 35 l-3 32 -125 2 c-69
1 -131 -1 -137 -3z"/>
<path d="M498 1633 c-8 -29 -4 -181 5 -189 4 -4 7 11 7 34 0 37 3 42 23 42 14
0 30 -13 45 -36 13 -20 26 -34 29 -31 3 3 -2 16 -11 29 -20 28 -21 48 -1 48
32 0 48 77 20 100 -9 7 -37 15 -64 18 -42 4 -49 2 -53 -15z m100 -15 c7 -7 12
-21 12 -33 0 -31 -19 -45 -62 -45 -37 0 -38 1 -38 38 0 21 3 42 7 45 11 12 68
8 81 -5z"/>
<path d="M800 1640 c0 -5 11 -10 25 -10 25 0 25 -1 25 -82 0 -46 5 -90 10 -98
7 -10 10 16 10 83 l0 97 30 0 c17 0 30 5 30 10 0 6 -28 10 -65 10 -37 0 -65
-4 -65 -10z"/>
<path d="M1300 1641 c0 -5 12 -11 28 -13 26 -3 27 -6 32 -68 4 -58 6 -61 13
-31 4 18 7 49 7 67 0 30 3 34 25 34 14 0 25 5 25 10 0 6 -28 10 -65 10 -36 0
-65 -4 -65 -9z"/>
<path d="M1748 1603 l-3 -48 -57 -3 -58 -3 0 46 c0 25 -4 45 -10 45 -6 0 -10
-41 -10 -102 0 -63 4 -98 9 -92 5 5 11 27 13 49 l3 40 45 -2 c25 -1 51 -2 58
-2 8 -1 12 -17 12 -46 0 -25 5 -45 10 -45 13 0 13 197 1 205 -6 3 -11 -16 -13
-42z"/>
<path d="M2280 1640 c0 -5 14 -10 30 -10 l30 0 0 -95 c0 -57 4 -95 10 -95 6 0
10 38 10 95 0 95 0 95 25 95 14 0 25 5 25 10 0 6 -28 10 -65 10 -37 0 -65 -4
-65 -10z"/>
<path d="M2810 1630 c-36 -36 -23 -65 46 -95 55 -24 68 -47 42 -73 -18 -18
-66 -15 -77 5 -5 10 -13 14 -18 10 -12 -12 35 -47 63 -47 29 0 64 33 64 59 0
20 -44 61 -65 61 -7 0 -23 8 -35 18 -17 13 -21 24 -16 40 9 27 60 30 88 5 10
-9 18 -11 18 -5 0 16 -41 42 -67 42 -13 0 -32 -9 -43 -20z"/>
<path d="M3117 1643 c-11 -11 -8 -203 3 -203 6 0 10 18 10 40 0 39 1 40 33 40
48 0 77 24 77 65 0 24 -7 39 -22 49 -22 16 -89 22 -101 9z m98 -29 c10 -10 13
-24 9 -38 -9 -28 -22 -36 -61 -36 -32 0 -33 1 -33 45 0 45 0 45 34 45 19 0 42
-7 51 -16z"/>
<path d="M3424 1637 c-3 -8 -3 -56 -2 -108 l3 -94 44 -3 c24 -2 49 2 54 7 8 8
-3 11 -36 11 l-47 0 0 40 0 40 40 0 c22 0 40 5 40 10 0 6 -18 10 -40 10 l-40
0 0 40 0 40 45 0 c25 0 45 5 45 10 0 16 -100 12 -106 -3z"/>
<path d="M4124 1598 l-49 -52 -3 47 c-6 88 -22 48 -22 -53 0 -60 4 -100 10
-100 6 0 10 20 10 45 0 25 4 45 8 45 4 0 25 -20 45 -45 21 -25 43 -45 48 -45
6 0 -8 22 -30 48 -43 51 -49 66 -28 79 21 14 71 73 65 78 -2 3 -27 -18 -54
-47z"/>
<path d="M4382 1634 c-16 -11 -22 -24 -20 -42 2 -21 14 -32 56 -52 28 -14 55
-33 58 -43 14 -45 -62 -66 -90 -25 -13 18 -16 19 -16 6 0 -21 37 -48 65 -48
24 0 65 34 65 53 0 23 -26 49 -71 71 -35 17 -44 26 -44 46 0 20 6 26 28 28 17
2 36 -3 47 -13 11 -10 20 -12 24 -6 8 13 -32 41 -59 41 -11 0 -31 -7 -43 -16z"/>
<path d="M4870 1640 c0 -5 14 -10 30 -10 l30 0 1 -97 c1 -113 16 -92 18 25 1
70 2 72 26 72 14 0 25 5 25 10 0 6 -28 10 -65 10 -37 0 -65 -4 -65 -10z"/>
<path d="M5223 1631 c-34 -21 -47 -49 -45 -99 2 -44 17 -69 54 -88 39 -20 87
-12 119 22 19 20 24 37 24 76 0 43 -4 53 -33 79 -38 34 -74 37 -119 10z m112
-26 c53 -52 18 -155 -53 -155 -85 0 -121 115 -53 167 27 21 79 15 106 -12z"/>
<path d="M5760 1640 c0 -5 11 -10 25 -10 14 0 25 -3 25 -7 1 -5 1 -44 2 -88 1
-114 12 -117 18 -5 5 95 5 95 33 98 53 6 26 22 -38 22 -37 0 -65 -4 -65 -10z"/>
<path d="M6209 1605 l-4 -50 -60 0 -60 0 -6 45 c-4 28 -6 6 -6 -60 0 -58 2
-85 4 -60 3 24 8 47 13 50 7 4 82 5 113 1 4 -1 7 -22 7 -48 0 -81 12 -38 14
50 2 96 -10 152 -15 72z"/>
<path d="M6414 1637 c-3 -8 -3 -56 -2 -108 l3 -94 53 -3 c31 -2 52 1 52 7 0 6
-20 11 -45 11 l-45 0 0 40 0 40 40 0 c22 0 40 5 40 10 0 6 -18 10 -40 10 l-40
0 0 40 0 40 45 0 c25 0 45 5 45 10 0 16 -100 12 -106 -3z"/>
<path d="M6919 1629 c-11 -11 -18 -27 -15 -36 3 -8 6 -19 6 -24 0 -5 25 -20
55 -34 53 -23 62 -35 49 -69 -9 -23 -54 -20 -82 7 -23 21 -24 21 -21 2 6 -30
52 -51 85 -40 64 23 58 84 -11 111 -52 19 -73 47 -54 70 15 19 63 18 79 -1 7
-9 15 -13 18 -10 3 3 -3 14 -13 25 -23 26 -69 26 -96 -1z"/>
<path d="M7257 1630 c-81 -64 -36 -200 65 -200 45 0 89 47 95 103 5 43 3 49
-30 82 -41 41 -89 47 -130 15z m118 -25 c53 -52 18 -155 -53 -155 -38 0 -79
32 -87 68 -7 33 9 80 33 98 28 22 80 17 107 -11z"/>
<path d="M7600 1565 c0 -78 2 -88 25 -110 30 -30 64 -32 99 -4 25 19 26 25 26
111 0 50 -2 89 -4 87 -2 -2 -6 -40 -9 -84 -7 -95 -4 -80 -23 -99 -21 -21 -57
-20 -77 2 -13 14 -17 38 -17 95 0 42 -4 79 -10 82 -6 4 -10 -25 -10 -80z"/>
<path d="M202 1598 c-30 -69 -55 -149 -48 -155 3 -3 9 3 13 13 9 27 23 34 63
34 40 0 53 -7 64 -35 5 -11 10 -15 13 -9 6 17 -60 187 -74 192 -8 2 -21 -15
-31 -40z m52 -35 c22 -63 22 -63 -24 -63 -22 0 -40 4 -40 8 0 19 33 102 40
102 4 0 15 -21 24 -47z"/>
<path d="M2009 1613 c-47 -122 -59 -158 -55 -167 2 -6 7 -2 12 9 11 28 23 35
66 35 26 0 44 -7 58 -22 11 -12 20 -18 20 -12 -1 24 -67 178 -77 182 -7 2 -18
-9 -24 -25z m50 -52 c18 -55 15 -61 -29 -61 -44 0 -45 2 -29 51 23 68 37 71
58 10z"/>
<path d="M3742 1558 c-16 -46 -33 -91 -37 -100 -4 -11 -3 -18 4 -18 6 0 11 7
11 15 0 40 107 47 125 8 9 -20 25 -32 25 -18 0 22 -75 195 -85 195 -7 0 -26
-37 -43 -82z m62 20 c31 -77 31 -78 -12 -78 -21 0 -41 2 -44 5 -3 3 1 24 9 47
24 70 28 72 47 26z"/>
<path d="M7940 1535 l0 -105 45 0 c25 0 45 5 45 10 0 6 -16 10 -35 10 l-35 0
0 95 c0 57 -4 95 -10 95 -6 0 -10 -42 -10 -105z"/>
</g>
</svg>
